<svg xmlns="http://www.w3.org/2000/svg" id="prefix__Component_3_1" width="40" height="40" data-name="Component 3 – 1" viewBox="0 0 40 40">
    <rect id="prefix__Rectangle_2" width="40" height="40" fill="#15d959" data-name="Rectangle 2" opacity="0.16" rx="4"/>
    <path id="prefix__Icon_ionic-logo-whatsapp" fill="#2fc145" d="M13.7 2.25A11 11 0 0 0 2.658 13.207a10.844 10.844 0 0 0 1.584 5.658L2.25 24.743 8.363 22.8a11.061 11.061 0 0 0 16.379-9.594A11 11 0 0 0 13.7 2.25zm5.491 15.118a2.852 2.852 0 0 1-1.953 1.259c-.518.027-.533.4-3.356-.825a11.521 11.521 0 0 1-4.655-4.4 5.415 5.415 0 0 1-1.042-2.935 3.129 3.129 0 0 1 1.075-2.3 1.081 1.081 0 0 1 .765-.322c.222 0 .366-.007.531 0s.411-.034.625.534.725 1.966.791 2.108a.512.512 0 0 1 .005.491 1.918 1.918 0 0 1-.3.456c-.147.158-.31.354-.441.474-.147.134-.3.28-.146.566a8.45 8.45 0 0 0 1.5 2 7.7 7.7 0 0 0 2.21 1.469c.277.151.442.134.614-.047s.735-.791.934-1.063.385-.22.64-.117 1.615.831 1.891.982.462.227.528.346a2.319 2.319 0 0 1-.216 1.324z" data-name="Icon ionic-logo-whatsapp" transform="translate(6.254 6.254)"/>
</svg>
