<svg xmlns="http://www.w3.org/2000/svg" id="prefix__Component_2_1" width="40" height="40" data-name="Component 2 – 1" viewBox="0 0 40 40">
    <rect id="prefix__Rectangle_1" width="40" height="40" fill="#0955f9" data-name="Rectangle 1" opacity="0.16" rx="4"/>
    <path id="prefix__Icon_material-call" fill="#00a2ff" d="M8.12 12.291a15.15 15.15 0 0 0 6.591 6.591l2.2-2.2a.994.994 0 0 1 1.02-.24 11.408 11.408 0 0 0 3.57.57 1 1 0 0 1 1 1V21.5a1 1 0 0 1-1 1 17 17 0 0 1-17-17 1 1 0 0 1 1-1H9a1 1 0 0 1 1 1 11.362 11.362 0 0 0 .57 3.57 1 1 0 0 1-.25 1.02l-2.2 2.2z" data-name="Icon material-call" transform="translate(6.5 6.5)"/>
</svg>
