<svg xmlns="http://www.w3.org/2000/svg" width="64" height="64" viewBox="0 0 64 64">
    <defs>
        <linearGradient id="prefix__linear-gradient" x1=".5" x2=".5" y2="1.132" gradientUnits="objectBoundingBox">
            <stop offset="0" stop-color="#fff"/>
            <stop offset="1" stop-color="#fff" stop-opacity="0"/>
        </linearGradient>
        <style>
            .prefix__cls-1{fill:#002a90}.prefix__cls-2{fill:#fff}
        </style>
    </defs>
    <g id="prefix__logo" transform="translate(-651 -37)">
        <g id="prefix__Group_2" data-name="Group 2" transform="translate(651.28 37.28)">
            <g id="prefix__Group_1" data-name="Group 1">
                <circle id="prefix__Ellipse_2" cx="32" cy="32" r="32" class="prefix__cls-1" data-name="Ellipse 2" transform="translate(-.28 -.28)"/>
                <circle id="prefix__Ellipse_5" cx="32" cy="32" r="32" class="prefix__cls-1" data-name="Ellipse 5" transform="translate(-.28 -.28)"/>
                <circle id="prefix__Ellipse_3" cx="22" cy="22" r="22" class="prefix__cls-2" data-name="Ellipse 3" transform="translate(9.72 9.72)"/>
                <circle id="prefix__Ellipse_4" cx="14" cy="14" r="14" fill="#cb1514" data-name="Ellipse 4" transform="translate(17.72 17.72)"/>
                <path id="prefix__Polygon_1" d="M7.059 2.625a1 1 0 0 1 1.883 0l.827 2.308a1 1 0 0 0 .916.662l2.453.062a1 1 0 0 1 .578 1.8l-1.924 1.452a1 1 0 0 0-.355 1.086l.7 2.308a1 1 0 0 1-1.519 1.116l-2.057-1.392a1 1 0 0 0-1.123 0l-2.051 1.391A1 1 0 0 1 3.868 12.3l.7-2.308a1 1 0 0 0-.355-1.086L2.284 7.455a1 1 0 0 1 .578-1.8L5.315 5.6a1 1 0 0 0 .916-.662z" class="prefix__cls-2" data-name="Polygon 1" transform="translate(23.72 23.72)"/>
                <path id="prefix__Path_1" fill="#fff" d="M31.7 0a31.7 31.7 0 0 1 31.7 31.7c0 17.51-14.195 0-31.7 0S0 49.215 0 31.7A31.7 31.7 0 0 1 31.7 0z" data-name="Path 1" transform="translate(.015 .044)" style="mix-blend-mode:overlay;isolation:isolate"/>
                <path id="prefix__Path_2" fill="url(#prefix__linear-gradient)" d="M26.2 0a26.2 26.2 0 0 1 26.2 26.2c0 14.472-11.732 0-26.2 0S0 40.675 0 26.2A26.2 26.2 0 0 1 26.2 0z" data-name="Path 2" transform="translate(5.517 3.47)" style="mix-blend-mode:overlay;isolation:isolate"/>
            </g>
        </g>
    </g>
</svg>
